# xmcd
#
# Track frame offsets:
#	150
#	12964
#	23731
#	36540
#	49453
#	64006
#	75896
#	89430
#	100817
#	113233
#	125376
#	138553
#	151061
#	163521
#	177841
#	189288
#	203079
#	216423
#	228842
#	239935
#	253193
#	266337
#	279430
#	292355
#	305072
#	317720
#	329389
#
# Disc length: 4549 seconds
#
# Revision: 2
# Processed by: cddbd v1.5.2PL0 Copyright (c) Steve Scherf et al.
# Submitted via: EasyCDDAExtractor 8.2.3.1
#
DISCID=8b11c31b
DTITLE=Cliff Bruner and His Texas Wanderers - Cliff Bruner and His Texas Wanderers
DTITLE=3
DYEAR=1940
DGENRE=Hillbilly
TTITLE0=I'm Tired Of You
TTITLE1=Because
TTITLE2=I'll Forgive You (But I Can't Forget)
TTITLE3=I'm Still In Love With You
TTITLE4=Star Dust
TTITLE5=The Other Way
TTITLE6=Peggy Lou
TTITLE7=Singin' The Low Down Blues Down Low
TTITLE8=It's All Over Now (I Won't Worry)
TTITLE9=Tell Me Why Little Girl Tell Me Why
TTITLE10=Girl That You Loved Long Ago
TTITLE11=Little White Lies
TTITLE12=Little White Lies (alt)
TTITLE13=Kelly Swing
TTITLE14=San Antonio Rose [1939]
TTITLE15=Take Me Back Again
TTITLE16=You Don't Love Me But I'll Always Care
TTITLE17=I'm Headin' For That Ranch In The Sky
TTITLE18=Over The Trail
TTITLE19=Ten Pretty Girls
TTITLE20=Sorry (I'll Say I'm Sorry)
TTITLE21=Sorry (I'll Say I'm Sorry) (alt)
TTITLE22=Sparkling Blue Eyes
TTITLE23=New Falling Rain Blues
TTITLE24=New Falling Rain Blues (alt)
TTITLE25=I'll Keep Thinking Of You
TTITLE26='Neath The Purple On The Hills
EXTD=
EXTT0=
EXTT1=
EXTT2=
EXTT3=
EXTT4=
EXTT5=
EXTT6=
EXTT7=
EXTT8=
EXTT9=
EXTT10=
EXTT11=
EXTT12=
EXTT13=
EXTT14=
EXTT15=
EXTT16=
EXTT17=
EXTT18=
EXTT19=
EXTT20=
EXTT21=
EXTT22=
EXTT23=
EXTT24=
EXTT25=
EXTT26=
PLAYORDER=
